<?xml version="1.0" encoding="UTF-8" standalone="no"?>
<svg
   xmlns:dc="http://purl.org/dc/elements/1.1/"
   xmlns:cc="http://creativecommons.org/ns#"
   xmlns:rdf="http://www.w3.org/1999/02/22-rdf-syntax-ns#"
   xmlns:svg="http://www.w3.org/2000/svg"
   xmlns="http://www.w3.org/2000/svg"
   xmlns:sodipodi="http://sodipodi.sourceforge.net/DTD/sodipodi-0.dtd"
   xmlns:inkscape="http://www.inkscape.org/namespaces/inkscape"
   height="1000"
   width="1000"
   version="1.1"
   id="svg2"
   sodipodi:docname="cds.svg"
   inkscape:version="0.92.2 2405546, 2018-03-11">
  <metadata
     id="metadata8">
    <rdf:RDF>
      <cc:Work
         rdf:about="">
        <dc:format>image/svg+xml</dc:format>
        <dc:type
           rdf:resource="http://purl.org/dc/dcmitype/StillImage" />
        <dc:title />
      </cc:Work>
    </rdf:RDF>
  </metadata>
  <defs
     id="defs6" />
  <sodipodi:namedview
     pagecolor="#ffffff"
     bordercolor="#666666"
     borderopacity="1"
     objecttolerance="10"
     gridtolerance="10"
     guidetolerance="10"
     inkscape:pageopacity="0"
     inkscape:pageshadow="2"
     inkscape:window-width="1366"
     inkscape:window-height="699"
     id="namedview4"
     showgrid="false"
     inkscape:zoom="0.489"
     inkscape:cx="418.20041"
     inkscape:cy="500"
     inkscape:window-x="0"
     inkscape:window-y="0"
     inkscape:window-maximized="1"
     inkscape:current-layer="svg2" />
  <path
     style="color:#000000;font-style:normal;font-variant:normal;font-weight:normal;font-stretch:normal;font-size:medium;line-height:normal;font-family:sans-serif;font-variant-ligatures:normal;font-variant-position:normal;font-variant-caps:normal;font-variant-numeric:normal;font-variant-alternates:normal;font-feature-settings:normal;text-indent:0;text-align:start;text-decoration:none;text-decoration-line:none;text-decoration-style:solid;text-decoration-color:#000000;letter-spacing:normal;word-spacing:normal;text-transform:none;writing-mode:lr-tb;direction:ltr;text-orientation:mixed;dominant-baseline:auto;baseline-shift:baseline;text-anchor:start;white-space:normal;shape-padding:0;clip-rule:nonzero;display:inline;overflow:visible;visibility:visible;opacity:1;isolation:auto;mix-blend-mode:normal;color-interpolation:sRGB;color-interpolation-filters:linearRGB;solid-color:#000000;solid-opacity:1;vector-effect:none;fill:#000000;fill-opacity:1;fill-rule:nonzero;stroke:none;stroke-width:50;stroke-linecap:butt;stroke-linejoin:round;stroke-miterlimit:4;stroke-dasharray:none;stroke-dashoffset:0;stroke-opacity:1;color-rendering:auto;image-rendering:auto;shape-rendering:auto;text-rendering:auto;enable-background:accumulate"
     d="m 100,425 a 25.0025,25.0025 0 0 0 -2.496094,0.125 25.0025,25.0025 0 0 0 -2.470703,0.37305 25.0025,25.0025 0 0 0 -4.769531,1.47656 25.0025,25.0025 0 0 0 -2.25,1.08789 25.0025,25.0025 0 0 0 -2.13086,1.30664 25.0025,25.0025 0 0 0 -3.818359,3.21484 A 25.0025,25.0025 0 0 0 75,450 V 625 H 0 v 50 h 75 v 175 a 25.0025,25.0025 0 0 0 25,25 h 650 a 25.0025,25.0025 0 0 0 20,-10 L 912.5,675 H 1000 V 625 H 912.5 L 770,435 a 25.0025,25.0025 0 0 0 -3.37891,-3.67383 25.0025,25.0025 0 0 0 -4.04297,-2.93164 25.0025,25.0025 0 0 0 -2.21874,-1.14648 25.0025,25.0025 0 0 0 -2.32422,-0.92188 25.0025,25.0025 0 0 0 -2.4043,-0.68359 A 25.0025,25.0025 0 0 0 750,425 Z m 25,50 H 737.5 L 868.75,650 737.5,825 H 125 V 650 Z"
     id="path3710"
     inkscape:connector-curvature="0" />
</svg>
